<svg xmlns="http://www.w3.org/2000/svg" version="1.1" xmlns:xlink="http://www.w3.org/1999/xlink" xmlns:svgjs="http://svgjs.dev/svgjs" width="1500" height="265" viewBox="0 0 1500 265"><g transform="matrix(1,0,0,1,-0.9090909090909918,0.8200732321286068)"><svg viewBox="0 0 396 70" data-background-color="#ffffff" preserveAspectRatio="xMidYMid meet" height="265" width="1500" xmlns="http://www.w3.org/2000/svg" xmlns:xlink="http://www.w3.org/1999/xlink"><g id="tight-bounds" transform="matrix(1,0,0,1,0.2400000000000091,-0.2166231179207614)"><svg viewBox="0 0 395.52 70.43324623584154" height="70.43324623584154" width="395.52"><g><svg viewBox="0 0 499.7075562194885 88.98671458615965" height="70.43324623584154" width="395.52"><g transform="matrix(1,0,0,1,0,12.298453318347683)"><svg viewBox="0 0 395.52 64.38980794946428" height="64.38980794946428" width="395.52"><g id="textblocktransform"><svg viewBox="0 0 395.52 64.38980794946428" height="64.38980794946428" width="395.52" id="textblock"><g><svg viewBox="0 0 395.52 64.38980794946428" height="64.38980794946428" width="395.52"><g transform="matrix(1,0,0,1,0,0)"><svg width="395.52" viewBox="0.98 -36.67 237.42892794860805 38.65916656666101" height="64.38980794946428" data-palette-color="#755bb4"><path d="M13.96-7.91L13.96-7.91Q13.48-8.74 13.13-9.62 12.79-10.5 12.7-11.3 12.6-12.11 12.82-12.82 13.04-13.53 13.72-14.01L13.72-14.01Q14.26-14.4 14.94-14.31 15.63-14.21 16.41-13.72L16.41-13.72Q16.5-14.7 16.55-15.63 16.6-16.55 16.6-17.24L16.6-17.24Q16.6-18.55 16.43-20.02 16.26-21.48 15.87-22.73 15.48-23.97 14.84-24.8 14.21-25.63 13.23-25.63L13.23-25.63Q12.3-25.63 11.65-24.9 10.99-24.17 10.55-22.97 10.11-21.78 9.91-20.29 9.72-18.8 9.72-17.29L9.72-17.29Q9.72-15.58 9.94-13.87 10.16-12.16 10.6-10.79 11.04-9.42 11.69-8.59 12.35-7.76 13.28-7.76L13.28-7.76Q13.67-7.76 13.96-7.91ZM23.05-6.3L23.34-5.91Q23.83-5.22 24.41-4.17 25-3.13 25.32-2.03 25.63-0.93 25.59 0.05 25.54 1.03 24.76 1.61L24.76 1.61Q24.17 2.05 23.49 1.98 22.8 1.9 22.09 1.54 21.39 1.17 20.65 0.56 19.92-0.05 19.24-0.78L19.24-0.78Q17.92 0.34 16.28 0.98 14.65 1.61 12.65 1.61L12.65 1.61Q9.67 1.61 7.47 0.12 5.27-1.37 3.83-3.88 2.39-6.4 1.68-9.72 0.98-13.04 0.98-16.7L0.98-16.7Q0.98-20.12 1.73-23.63 2.49-27.15 4.05-29.98 5.62-32.81 8.01-34.62 10.4-36.43 13.72-36.43L13.72-36.43Q16.94-36.43 19.12-34.69 21.29-32.96 22.58-30.2 23.88-27.44 24.44-24.02 25-20.61 25-17.19L25-17.19Q25-14.16 24.51-11.4 24.02-8.64 23.05-6.3L23.05-6.3ZM49.46-13.96L49.46-13.96Q49.46-11.28 48.92-8.64 48.39-6.01 47.12-3.93 45.85-1.86 43.72-0.59 41.6 0.68 38.43 0.68L38.43 0.68Q35.3 0.68 33.2-0.56 31.1-1.81 29.86-3.86 28.61-5.91 28.1-8.5 27.59-11.08 27.59-13.77L27.59-13.77Q27.59-16.7 28.27-19.58L28.27-19.58Q28.42-20.36 28.83-21.75 29.25-23.14 29.9-24.49 30.56-25.83 31.42-26.81 32.27-27.78 33.3-27.78L33.3-27.78Q34.27-27.78 34.86-27.25 35.45-26.71 35.79-25.9 36.13-25.1 36.23-24.19 36.33-23.29 36.33-22.56L36.33-22.56Q36.33-21.44 36.15-20.36 35.98-19.29 35.79-18.21L35.79-18.21Q35.59-16.75 35.42-15.28 35.25-13.82 35.25-12.35L35.25-12.35Q35.25-11.62 35.32-10.72 35.4-9.81 35.69-8.98 35.98-8.15 36.52-7.59 37.06-7.03 38.03-7.03L38.03-7.03Q39.3-7.03 40.06-7.71 40.82-8.4 41.18-9.42 41.55-10.45 41.65-11.62 41.75-12.79 41.75-13.77L41.75-13.77Q41.75-15.92 41.45-17.99 41.16-20.07 40.92-22.22L40.92-22.22Q40.87-22.46 40.87-22.9L40.87-22.9Q40.87-23.63 41.11-24.37 41.35-25.1 41.79-25.68 42.23-26.27 42.87-26.64 43.5-27 44.28-27L44.28-27Q45.36-27 46.19-26.25 47.02-25.49 47.58-24.29 48.14-23.1 48.51-21.61 48.87-20.12 49.09-18.68 49.31-17.24 49.39-15.97 49.46-14.7 49.46-13.96ZM60.49-34.08L60.49-34.08Q60.49-33.4 60.13-32.86 59.76-32.32 59.17-31.91 58.59-31.49 57.91-31.27 57.22-31.05 56.64-31.05L56.64-31.05Q55.66-31.05 54.93-31.54 54.19-32.03 54.19-33.06L54.19-33.06Q54.19-33.79 54.56-34.35 54.93-34.91 55.46-35.28 56-35.64 56.68-35.84 57.37-36.04 58-36.04L58-36.04Q58.93-36.04 59.71-35.6 60.49-35.16 60.49-34.08ZM60.88-17.48L60.88-17.48Q60.88-16.8 60.88-16.04 60.88-15.28 60.83-14.6L60.83-14.6Q60.79-13.77 60.79-12.38 60.79-10.99 60.69-9.38 60.59-7.76 60.37-6.1 60.15-4.44 59.66-3.08 59.17-1.71 58.37-0.85 57.56 0 56.34 0.05L56.34 0.05Q55.41 0.1 54.78-0.68 54.15-1.46 53.73-2.71 53.32-3.96 53.12-5.49 52.92-7.03 52.83-8.47 52.73-9.91 52.73-11.13 52.73-12.35 52.73-12.94L52.73-12.94Q52.73-13.72 52.73-15.16 52.73-16.6 52.83-18.26 52.92-19.92 53.19-21.63 53.46-23.34 53.97-24.76 54.49-26.17 55.32-27.05 56.15-27.93 57.42-27.93L57.42-27.93Q58.74-27.93 59.42-26.61 60.1-25.29 60.44-23.54 60.79-21.78 60.83-20.04 60.88-18.31 60.88-17.48ZM86.27-4.59L86.27-4.59Q86.27-3.61 85.47-2.88 84.66-2.15 83.42-1.56 82.17-0.98 80.58-0.59 79-0.2 77.46 0.05 75.92 0.29 74.55 0.42 73.19 0.54 72.36 0.54L72.36 0.54Q71.53 0.54 70.04 0.49 68.55 0.44 67.08 0.12 65.62-0.2 64.54-0.9 63.47-1.61 63.47-2.88L63.47-2.88Q63.47-3.86 64.15-5.27 64.84-6.69 65.91-8.35 66.98-10.01 68.3-11.74 69.62-13.48 70.89-15.09 72.16-16.7 73.28-18.04 74.41-19.38 75.04-20.26L75.04-20.26Q74.36-20.12 73.31-19.85 72.26-19.58 71.14-19.34 70.01-19.09 68.96-18.92 67.91-18.75 67.18-18.75L67.18-18.75Q66.59-18.75 65.86-18.97 65.13-19.19 64.47-19.58 63.81-19.97 63.35-20.51 62.88-21.04 62.88-21.73L62.88-21.73Q62.88-22.61 63.66-23.36 64.45-24.12 65.72-24.73 66.98-25.34 68.55-25.81 70.11-26.27 71.62-26.59 73.14-26.9 74.5-27.05 75.87-27.2 76.7-27.2L76.7-27.2Q77.63-27.2 78.95-27 80.27-26.81 81.51-26.32 82.76-25.83 83.64-25 84.51-24.17 84.51-22.9L84.51-22.9Q84.51-22.51 84.44-22.19 84.37-21.88 84.27-21.48L84.27-21.48Q84.17-21.14 83.42-19.95 82.66-18.75 81.56-17.11 80.46-15.48 79.17-13.6 77.87-11.72 76.7-10.06 75.53-8.4 74.65-7.13 73.77-5.86 73.48-5.42L73.48-5.42Q75.48-5.96 77.56-6.32 79.63-6.69 81.68-6.69L81.68-6.69Q82.17-6.69 82.95-6.64 83.73-6.59 84.47-6.37 85.2-6.15 85.73-5.74 86.27-5.32 86.27-4.59ZM99.75-7.91L99.75-7.91Q99.26-8.74 98.92-9.62 98.57-10.5 98.48-11.3 98.38-12.11 98.6-12.82 98.82-13.53 99.5-14.01L99.5-14.01Q100.04-14.4 100.72-14.31 101.41-14.21 102.19-13.72L102.19-13.72Q102.28-14.7 102.33-15.63 102.38-16.55 102.38-17.24L102.38-17.24Q102.38-18.55 102.21-20.02 102.04-21.48 101.65-22.73 101.26-23.97 100.62-24.8 99.99-25.63 99.01-25.63L99.01-25.63Q98.09-25.63 97.43-24.9 96.77-24.17 96.33-22.97 95.89-21.78 95.69-20.29 95.5-18.8 95.5-17.29L95.5-17.29Q95.5-15.58 95.72-13.87 95.94-12.16 96.38-10.79 96.82-9.42 97.48-8.59 98.13-7.76 99.06-7.76L99.06-7.76Q99.45-7.76 99.75-7.91ZM108.83-6.3L109.12-5.91Q109.61-5.22 110.2-4.17 110.78-3.13 111.1-2.03 111.42-0.93 111.37 0.05 111.32 1.03 110.54 1.61L110.54 1.61Q109.95 2.05 109.27 1.98 108.58 1.9 107.88 1.54 107.17 1.17 106.44 0.56 105.7-0.05 105.02-0.78L105.02-0.78Q103.7 0.34 102.07 0.98 100.43 1.61 98.43 1.61L98.43 1.61Q95.45 1.61 93.25 0.12 91.05-1.37 89.61-3.88 88.17-6.4 87.47-9.72 86.76-13.04 86.76-16.7L86.76-16.7Q86.76-20.12 87.51-23.63 88.27-27.15 89.83-29.98 91.4-32.81 93.79-34.62 96.18-36.43 99.5-36.43L99.5-36.43Q102.72-36.43 104.9-34.69 107.07-32.96 108.36-30.2 109.66-27.44 110.22-24.02 110.78-20.61 110.78-17.19L110.78-17.19Q110.78-14.16 110.29-11.4 109.8-8.64 108.83-6.3L108.83-6.3ZM135.24-13.96L135.24-13.96Q135.24-11.28 134.7-8.64 134.17-6.01 132.9-3.93 131.63-1.86 129.5-0.59 127.38 0.68 124.21 0.68L124.21 0.68Q121.08 0.68 118.98-0.56 116.88-1.81 115.64-3.86 114.39-5.91 113.88-8.5 113.37-11.08 113.37-13.77L113.37-13.77Q113.37-16.7 114.05-19.58L114.05-19.58Q114.2-20.36 114.61-21.75 115.03-23.14 115.69-24.49 116.34-25.83 117.2-26.81 118.05-27.78 119.08-27.78L119.08-27.78Q120.06-27.78 120.64-27.25 121.23-26.71 121.57-25.9 121.91-25.1 122.01-24.19 122.11-23.29 122.11-22.56L122.11-22.56Q122.11-21.44 121.94-20.36 121.76-19.29 121.57-18.21L121.57-18.21Q121.37-16.75 121.2-15.28 121.03-13.82 121.03-12.35L121.03-12.35Q121.03-11.62 121.11-10.72 121.18-9.81 121.47-8.98 121.76-8.15 122.3-7.59 122.84-7.03 123.82-7.03L123.82-7.03Q125.09-7.03 125.84-7.71 126.6-8.4 126.97-9.42 127.33-10.45 127.43-11.62 127.53-12.79 127.53-13.77L127.53-13.77Q127.53-15.92 127.23-17.99 126.94-20.07 126.7-22.22L126.7-22.22Q126.65-22.46 126.65-22.9L126.65-22.9Q126.65-23.63 126.89-24.37 127.14-25.1 127.58-25.68 128.01-26.27 128.65-26.64 129.28-27 130.07-27L130.07-27Q131.14-27 131.97-26.25 132.8-25.49 133.36-24.29 133.92-23.1 134.29-21.61 134.66-20.12 134.88-18.68 135.09-17.24 135.17-15.97 135.24-14.7 135.24-13.96ZM158.68-8.69L158.68-8.69Q158.68-7.03 157.63-5.44 156.58-3.86 154.99-2.61 153.4-1.37 151.6-0.61 149.79 0.15 148.28 0.15L148.28 0.15Q145.69 0.15 143.66-1.15 141.64-2.44 140.27-4.44 138.9-6.45 138.19-8.86 137.49-11.28 137.49-13.57L137.49-13.57Q137.49-16.02 138.17-18.8 138.85-21.58 140.24-23.93 141.64-26.27 143.76-27.83 145.88-29.39 148.81-29.39L148.81-29.39Q150.47-29.39 151.99-28.83 153.5-28.27 154.62-27.25 155.75-26.22 156.43-24.8 157.11-23.39 157.11-21.63L157.11-21.63Q157.11-19.34 156.14-17.33 155.16-15.33 153.55-13.87 151.94-12.4 149.84-11.5 147.74-10.6 145.54-10.5L145.54-10.5Q145.74-9.08 146.69-8.45 147.64-7.81 148.96-7.81L148.96-7.81Q149.94-7.81 150.86-8.3 151.79-8.79 152.67-9.4 153.55-10.01 154.4-10.5 155.26-10.99 156.14-10.99L156.14-10.99Q157.11-10.99 157.9-10.35 158.68-9.72 158.68-8.69ZM150.77-20.65L150.77-20.65Q150.77-21.29 150.42-21.97 150.08-22.66 149.35-22.66L149.35-22.66Q148.28-22.66 147.54-22.09 146.81-21.53 146.32-20.68 145.83-19.82 145.57-18.85 145.3-17.87 145.25-17.04L145.25-17.04Q145.93-17.19 146.88-17.43 147.84-17.68 148.69-18.09 149.55-18.51 150.16-19.14 150.77-19.78 150.77-20.65ZM174.93-26.86L174.93-26.86Q174.93-25.44 173.98-24.76 173.03-24.07 171.86-23.46 170.69-22.85 169.73-22.02 168.78-21.19 168.78-19.53L168.78-19.53Q168.78-18.65 169.2-18.02 169.61-17.38 170.22-16.87 170.83-16.36 171.56-15.82 172.3-15.28 172.91-14.6 173.52-13.92 173.93-12.94 174.35-11.96 174.35-10.55L174.35-10.55Q174.35-8.5 173.3-6.52 172.25-4.54 170.61-3 168.98-1.46 166.93-0.54 164.88 0.39 162.87 0.39L162.87 0.39Q162.04 0.39 161.21 0.27 160.38 0.15 159.72-0.2 159.06-0.54 158.63-1.15 158.19-1.76 158.19-2.73L158.19-2.73Q158.19-4.1 158.72-4.86 159.26-5.62 160.09-6.05 160.92-6.49 161.87-6.74 162.82-6.98 163.65-7.35 164.48-7.71 165.02-8.3 165.56-8.89 165.56-9.96L165.56-9.96Q165.56-10.99 164.75-12.08 163.95-13.18 162.97-14.43 161.99-15.67 161.19-17.09 160.38-18.51 160.38-20.21L160.38-20.21Q160.38-22.31 161.24-24.1 162.09-25.88 163.53-27.2 164.97-28.52 166.83-29.27 168.68-30.03 170.73-30.03L170.73-30.03Q171.52-30.03 172.27-29.88 173.03-29.74 173.62-29.37 174.2-29 174.57-28.39 174.93-27.78 174.93-26.86ZM188.26 1.76L188.26 1.76Q184.79 1.76 182.87 0.85 180.94-0.05 179.98-1.71 179.03-3.37 178.84-5.71 178.64-8.06 178.64-10.94L178.64-10.94Q178.64-13.23 178.79-15.55 178.94-17.87 179.23-20.51L179.23-20.51Q178.54-20.51 178.15-20.48 177.76-20.46 177.52-20.46L177.52-20.46Q175.96-20.46 174.81-21.14 173.66-21.83 173.66-23.24L173.66-23.24Q173.66-24.12 174.32-24.8 174.98-25.49 176.01-25.98 177.03-26.46 178.23-26.76 179.42-27.05 180.5-27.15L180.5-27.15Q180.5-28.52 180.69-30.18 180.89-31.84 181.4-33.28 181.91-34.72 182.79-35.69 183.67-36.67 185.04-36.67L185.04-36.67Q185.82-36.67 186.43-36.21 187.04-35.74 187.43-35.03 187.82-34.33 188.02-33.45 188.21-32.57 188.21-31.74L188.21-31.74Q188.21-30.76 188.07-29.74 187.92-28.71 187.53-27.2L187.53-27.2Q188.36-27.29 188.65-27.32 188.94-27.34 189.19-27.34L189.19-27.34Q190.02-27.34 190.92-27.2 191.83-27.05 192.58-26.71 193.34-26.37 193.83-25.81 194.32-25.24 194.32-24.46L194.32-24.46Q194.32-23.58 193.61-22.9 192.9-22.22 191.83-21.73 190.75-21.24 189.53-20.97 188.31-20.7 187.24-20.61L187.24-20.61Q186.94-18.6 186.82-16.92 186.7-15.23 186.55-13.53L186.55-13.53Q186.45-12.7 186.38-11.84 186.31-10.99 186.31-10.11L186.31-10.11Q186.31-9.47 186.36-8.62 186.41-7.76 186.7-6.98 186.99-6.2 187.63-5.64 188.26-5.08 189.38-5.08L189.38-5.08Q190.07-5.08 190.8-5.2 191.53-5.32 192.27-5.32L192.27-5.32Q193.53-5.32 194.1-4.44 194.66-3.56 194.66-2.2L194.66-2.2Q194.66-1.17 194.05-0.42 193.44 0.34 192.51 0.81 191.58 1.27 190.43 1.51 189.29 1.76 188.26 1.76ZM216.09-8.69L216.09-8.69Q216.09-7.03 215.04-5.44 213.99-3.86 212.4-2.61 210.82-1.37 209.01-0.61 207.2 0.15 205.69 0.15L205.69 0.15Q203.1 0.15 201.08-1.15 199.05-2.44 197.68-4.44 196.32-6.45 195.61-8.86 194.9-11.28 194.9-13.57L194.9-13.57Q194.9-16.02 195.58-18.8 196.27-21.58 197.66-23.93 199.05-26.27 201.17-27.83 203.3-29.39 206.23-29.39L206.23-29.39Q207.89-29.39 209.4-28.83 210.92-28.27 212.04-27.25 213.16-26.22 213.84-24.8 214.53-23.39 214.53-21.63L214.53-21.63Q214.53-19.34 213.55-17.33 212.58-15.33 210.96-13.87 209.35-12.4 207.25-11.5 205.15-10.6 202.96-10.5L202.96-10.5Q203.15-9.08 204.1-8.45 205.06-7.81 206.37-7.81L206.37-7.81Q207.35-7.81 208.28-8.3 209.21-8.79 210.08-9.4 210.96-10.01 211.82-10.5 212.67-10.99 213.55-10.99L213.55-10.99Q214.53-10.99 215.31-10.35 216.09-9.72 216.09-8.69ZM208.18-20.65L208.18-20.65Q208.18-21.29 207.84-21.97 207.5-22.66 206.76-22.66L206.76-22.66Q205.69-22.66 204.96-22.09 204.23-21.53 203.74-20.68 203.25-19.82 202.98-18.85 202.71-17.87 202.66-17.04L202.66-17.04Q203.35-17.19 204.3-17.43 205.25-17.68 206.11-18.09 206.96-18.51 207.57-19.14 208.18-19.78 208.18-20.65ZM234.98-18.26L234.98-18.26Q234.3-18.21 233.81-18.38 233.32-18.55 232.84-18.75L232.84-18.75Q232.4-18.95 231.96-19.12 231.52-19.29 230.98-19.24L230.98-19.24Q230-19.19 229.25-18.7 228.49-18.21 227.88-17.48 227.27-16.75 226.83-15.84 226.39-14.94 226.15-14.06L226.15-14.06Q226-13.48 225.93-12.28 225.85-11.08 225.85-9.72L225.85-9.72Q225.81-8.3 225.81-7.03 225.81-5.76 225.71-5.03L225.71-5.03Q225.66-4.25 225.46-3.2 225.27-2.15 224.85-1.22 224.44-0.29 223.75 0.34 223.07 0.98 222 0.98L222 0.98Q221.17 0.98 220.56 0.49 219.95 0 219.53-0.81 219.12-1.61 218.85-2.69 218.58-3.76 218.43-4.88L218.43-4.88Q218.29-6.05 218.21-7.23 218.14-8.4 218.11-9.45 218.09-10.5 218.11-11.38 218.14-12.26 218.14-12.79L218.14-12.79Q218.09-14.5 217.97-16.24 217.85-17.97 217.85-19.68L217.85-19.68Q217.85-20.75 217.94-22.07 218.04-23.39 218.48-24.54 218.92-25.68 219.77-26.46 220.63-27.25 222.14-27.25L222.14-27.25Q222.97-27.25 223.56-26.71 224.14-26.17 224.51-25.39 224.88-24.61 225.07-23.73 225.27-22.85 225.32-22.12L225.32-22.12Q226.49-24.02 227.95-25.22 229.42-26.42 231.76-26.51L231.76-26.51Q232.93-26.56 234.08-26.29 235.23-26.03 236.18-25.42 237.13-24.8 237.74-23.83 238.35-22.85 238.4-21.53L238.4-21.53Q238.5-19.97 237.48-19.14 236.45-18.31 234.98-18.26Z" opacity="1" transform="matrix(1,0,0,1,0,0)" fill="#755bb4" class="wordmark-text-0" data-fill-palette-color="primary" id="text-0"></path></svg></g></svg></g></svg></g></svg></g><g transform="matrix(1,0,0,1,410.7208883014777,0)"><svg viewBox="0 0 88.98666791801075 88.98671458615965" height="88.98671458615965" width="88.98666791801075"><g><svg xmlns="http://www.w3.org/2000/svg" xmlns:xlink="http://www.w3.org/1999/xlink" version="1.1" x="0" y="0" viewBox="5 4.999153 90.0007998 90.000847" enable-background="new 0 0 100 100" xml:space="preserve" height="88.98671458615965" width="88.98666791801075" class="icon-icon-0" data-fill-palette-color="accent" id="icon-0"><polygon points="5,95 33.978,87.236 12.765,66.022 " fill="#755bb4" data-fill-palette-color="accent"></polygon><polygon points="5,26.213 8.976,30.188 21.664,17.5 23.432,19.268 10.743,31.956 16.046,37.26 28.735,24.571 30.502,26.339   17.814,39.027 23.117,44.331 35.806,31.642 37.574,33.41 24.885,46.099 30.188,51.401 42.877,38.713 44.645,40.481 31.956,53.169   37.26,58.473 49.948,45.784 51.716,47.552 39.027,60.24 44.33,65.544 57.019,52.855 58.787,54.623 46.098,67.312 51.401,72.615   64.09,59.927 65.857,61.694 53.169,74.383 58.473,79.686 71.161,66.997 72.929,68.766 60.24,81.454 65.544,86.757 78.232,74.068   80,75.836 67.312,88.524 73.786,95 95,73.787 26.213,5 " fill="#755bb4" data-fill-palette-color="accent"></polygon><rect x="17.266" y="60.154" transform="matrix(-0.7071 -0.7071 0.7071 -0.7071 7.1866 138.4446)" width="30" height="15.16" fill="#755bb4" data-fill-palette-color="accent"></rect><rect x="58.384" y="11.046" transform="matrix(0.7071 0.7071 -0.7071 0.7071 40.3151 -44.0948)" width="30" height="31.14" fill="#755bb4" data-fill-palette-color="accent"></rect></svg></g></svg></g></svg></g><defs></defs></svg><rect width="395.52" height="70.43324623584154" fill="none" stroke="none" visibility="hidden"></rect></g></svg></g></svg>